<svg width="133" height="64" viewBox="0 0 133 64" fill="none" xmlns="http://www.w3.org/2000/svg">
<path d="M11.4238 6.67188H14.251V21.7744C14.251 23.8154 13.6357 25.4121 12.4053 26.5645C11.1846 27.7168 9.55371 28.293 7.5127 28.293C5.39355 28.293 3.74316 27.751 2.56152 26.667C1.37988 25.583 0.789062 24.0645 0.789062 22.1113H3.60156C3.60156 23.332 3.93359 24.2842 4.59766 24.9678C5.27148 25.6514 6.24316 25.9932 7.5127 25.9932C8.6748 25.9932 9.6123 25.627 10.3252 24.8945C11.0479 24.1621 11.4141 23.1367 11.4238 21.8184V6.67188ZM35.4473 18.0244C35.4473 20.1143 35.0957 21.9404 34.3926 23.5029C33.6895 25.0557 32.6934 26.2422 31.4043 27.0625C30.1152 27.8828 28.6113 28.293 26.8926 28.293C25.2129 28.293 23.7236 27.8828 22.4248 27.0625C21.126 26.2324 20.1152 25.0557 19.3926 23.5322C18.6797 21.999 18.3135 20.2266 18.2939 18.2148V16.6768C18.2939 14.626 18.6504 12.8145 19.3633 11.2422C20.0762 9.66992 21.082 8.46875 22.3809 7.63867C23.6895 6.79883 25.1836 6.37891 26.8633 6.37891C28.5723 6.37891 30.0762 6.79395 31.375 7.62402C32.6836 8.44434 33.6895 9.64063 34.3926 11.2129C35.0957 12.7754 35.4473 14.5967 35.4473 16.6768V18.0244ZM32.6494 16.6475C32.6494 14.1182 32.1416 12.1797 31.126 10.832C30.1104 9.47461 28.6895 8.7959 26.8633 8.7959C25.0859 8.7959 23.6846 9.47461 22.6592 10.832C21.6436 12.1797 21.1211 14.0547 21.0918 16.457V18.0244C21.0918 20.4756 21.6045 22.4043 22.6299 23.8105C23.665 25.207 25.0859 25.9053 26.8926 25.9053C28.709 25.9053 30.1152 25.2461 31.1113 23.9277C32.1074 22.5996 32.6201 20.7002 32.6494 18.2295V16.6475ZM45.0859 18.083L42.4785 20.793V28H39.666V6.67188H42.4785V17.2188L51.9561 6.67188H55.3545L46.9609 16.0908L56.0137 28H52.6445L45.0859 18.083ZM70.5303 18.1416H61.2871V25.7002H72.0244V28H58.4746V6.67188H71.8779V8.98633H61.2871V15.8418H70.5303V18.1416ZM91.917 28H89.0898L78.3525 11.5645V28H75.5254V6.67188H78.3525L89.1191 23.1807V6.67188H91.917V28ZM99.7246 19.6504V28H96.9121V6.67188H104.778C107.112 6.67188 108.938 7.26758 110.257 8.45898C111.585 9.65039 112.249 11.2275 112.249 13.1904C112.249 15.2607 111.6 16.8574 110.301 17.9805C109.012 19.0938 107.161 19.6504 104.749 19.6504H99.7246ZM99.7246 17.3506H104.778C106.282 17.3506 107.435 16.999 108.235 16.2959C109.036 15.583 109.437 14.5576 109.437 13.2197C109.437 11.9502 109.036 10.9346 108.235 10.1729C107.435 9.41113 106.336 9.01562 104.939 8.98633H99.7246V17.3506ZM132.244 18.0244C132.244 20.1143 131.893 21.9404 131.189 23.5029C130.486 25.0557 129.49 26.2422 128.201 27.0625C126.912 27.8828 125.408 28.293 123.689 28.293C122.01 28.293 120.521 27.8828 119.222 27.0625C117.923 26.2324 116.912 25.0557 116.189 23.5322C115.477 21.999 115.11 20.2266 115.091 18.2148V16.6768C115.091 14.626 115.447 12.8145 116.16 11.2422C116.873 9.66992 117.879 8.46875 119.178 7.63867C120.486 6.79883 121.98 6.37891 123.66 6.37891C125.369 6.37891 126.873 6.79395 128.172 7.62402C129.48 8.44434 130.486 9.64063 131.189 11.2129C131.893 12.7754 132.244 14.5967 132.244 16.6768V18.0244ZM129.446 16.6475C129.446 14.1182 128.938 12.1797 127.923 10.832C126.907 9.47461 125.486 8.7959 123.66 8.7959C121.883 8.7959 120.481 9.47461 119.456 10.832C118.44 12.1797 117.918 14.0547 117.889 16.457V18.0244C117.889 20.4756 118.401 22.4043 119.427 23.8105C120.462 25.207 121.883 25.9053 123.689 25.9053C125.506 25.9053 126.912 25.2461 127.908 23.9277C128.904 22.5996 129.417 20.7002 129.446 18.2295V16.6475ZM128.143 4.94336V5.08984H125.901L123.704 2.59961L121.521 5.08984H119.28V4.91406L122.884 0.929688H124.524L128.143 4.94336ZM28.0352 53.4932C25.623 52.7998 23.8652 51.9502 22.7617 50.9443C21.668 49.9287 21.1211 48.6787 21.1211 47.1943C21.1211 45.5146 21.79 44.1279 23.1279 43.0342C24.4756 41.9307 26.2236 41.3789 28.3721 41.3789C29.8369 41.3789 31.1406 41.6621 32.2832 42.2285C33.4355 42.7949 34.3242 43.5762 34.9492 44.5723C35.584 45.5684 35.9014 46.6572 35.9014 47.8389H33.0742C33.0742 46.5498 32.6641 45.5391 31.8438 44.8066C31.0234 44.0645 29.8662 43.6934 28.3721 43.6934C26.9854 43.6934 25.9014 44.001 25.1201 44.6162C24.3486 45.2217 23.9629 46.0664 23.9629 47.1504C23.9629 48.0195 24.3291 48.7568 25.0615 49.3623C25.8037 49.958 27.0586 50.5049 28.8262 51.0029C30.6035 51.501 31.9902 52.0527 32.9863 52.6582C33.9922 53.2539 34.7344 53.9521 35.2129 54.7529C35.7012 55.5537 35.9453 56.4961 35.9453 57.5801C35.9453 59.3086 35.2715 60.6953 33.9238 61.7402C32.5762 62.7754 30.7744 63.293 28.5186 63.293C27.0537 63.293 25.6865 63.0146 24.417 62.458C23.1475 61.8916 22.166 61.1201 21.4727 60.1436C20.7891 59.167 20.4473 58.0586 20.4473 56.8184H23.2744C23.2744 58.1074 23.748 59.1279 24.6953 59.8799C25.6523 60.6221 26.9268 60.9932 28.5186 60.9932C30.0029 60.9932 31.1406 60.6904 31.9316 60.085C32.7227 59.4795 33.1182 58.6543 33.1182 57.6094C33.1182 56.5645 32.752 55.7588 32.0195 55.1924C31.2871 54.6162 29.959 54.0498 28.0352 53.4932ZM51.6191 53.1416H42.376V60.7002H53.1133V63H39.5635V41.6719H52.9668V43.9863H42.376V50.8418H51.6191V53.1416ZM73.0059 63H70.1787L59.4414 46.5645V63H56.6143V41.6719H59.4414L70.208 58.1807V41.6719H73.0059V63ZM90.042 57.4336H81.1064L79.0996 63H76.1992L84.3438 41.6719H86.8047L94.9639 63H92.0781L90.042 57.4336ZM81.9561 55.1191H89.207L85.5742 45.1436L81.9561 55.1191ZM113.348 56.2324C113.084 58.4883 112.249 60.2314 110.843 61.4619C109.446 62.6826 107.586 63.293 105.262 63.293C102.742 63.293 100.721 62.3896 99.1973 60.583C97.6836 58.7764 96.9268 56.3594 96.9268 53.332V51.2812C96.9268 49.2988 97.2783 47.5557 97.9814 46.0518C98.6943 44.5479 99.7002 43.3955 100.999 42.5947C102.298 41.7842 103.802 41.3789 105.511 41.3789C107.776 41.3789 109.593 42.0137 110.96 43.2832C112.327 44.543 113.123 46.291 113.348 48.5273H110.521C110.276 46.8281 109.744 45.5977 108.924 44.8359C108.113 44.0742 106.976 43.6934 105.511 43.6934C103.714 43.6934 102.303 44.3574 101.277 45.6855C100.262 47.0137 99.7539 48.9033 99.7539 51.3545V53.4199C99.7539 55.7344 100.237 57.5752 101.204 58.9424C102.171 60.3096 103.523 60.9932 105.262 60.9932C106.824 60.9932 108.021 60.6416 108.851 59.9385C109.69 59.2256 110.247 57.9902 110.521 56.2324H113.348Z" fill="white"/>
</svg>
